<svg height="512" viewBox="0 0 60 60" width="512" xmlns="http://www.w3.org/2000/svg"><g id="002---Answer-Message"><path id="Shape" d="m55 0h-50c-2.76005315.00330612-4.99669388 2.23994685-5 5v38c.00330612 2.7600532 2.23994685 4.9966939 5 5h31.358l14.4 11.562c.6004702.4757474 1.4199413.5666859 2.110107.2341631s1.1297422-1.0300721 1.131893-1.7961631v-10h1c2.7600532-.0033061 4.9966939-2.2399468 5-5v-38c-.0033061-2.76005315-2.2399468-4.99669388-5-5zm3 43c0 1.6568542-1.3431458 3-3 3h-5c-.5522847 0-1 .4477153-1 1s.4477153 1 1 1h2v10l-12.448-10h3.448c.5522847 0 1-.4477153 1-1s-.4477153-1-1-1h-38c-1.65685425 0-3-1.3431458-3-3v-38c0-1.65685425 1.34314575-3 3-3h50c1.6568542 0 3 1.34314575 3 3z"/><circle id="Oval" cx="38" cy="27" r="1"/><path id="Shape" d="m53 31h-46c-.55228475 0-1 .4477153-1 1s.44771525 1 1 1h46c.5522847 0 1-.4477153 1-1s-.4477153-1-1-1z"/><path id="Shape" d="m53 35h-46c-.55228475 0-1 .4477153-1 1s.44771525 1 1 1h46c.5522847 0 1-.4477153 1-1s-.4477153-1-1-1z"/><path id="Shape" d="m27 39h-20c-.55228475 0-1 .4477153-1 1s.44771525 1 1 1h20c.5522847 0 1-.4477153 1-1s-.4477153-1-1-1z"/><path id="Shape" d="m38 24c.5522847 0 1-.4477153 1-1v-16c0-.55228475-.4477153-1-1-1s-1 .44771525-1 1v16c0 .5522847.4477153 1 1 1z"/><path id="Shape" d="m20.713 27.958c.2540775.0761356.5279942.0482117.7614817-.0776278.2334876-.1258395.4074165-.3392846.4835183-.5933722l1.886-6.287h6.312l1.886 6.287c.1585057.5290888.7159112.8295057 1.245.671s.8295057-.7159112.671-1.245l-6-20c-.1267034-.42327513-.5161679-.7132318-.958-.7132318s-.8312966.28995667-.958.7132318l-6 20c-.0761356.2540775-.0482117.5279942.0776278.7614817.1258395.2334876.3392846.4074165.5933722.4835183zm6.287-17.478 2.556 8.52h-5.112z"/></g></svg>